<?xml version="1.0" encoding="UTF-8" standalone="no"?>
<!-- Created with Inkscape (http://www.inkscape.org/) -->

<svg
   width="1920"
   height="364.87799"
   viewBox="0 0 1920 364.87799"
   version="1.1"
   id="SVGRoot"
   inkscape:version="0.92.4 (5da689c313, 2019-01-14)"
   sodipodi:docname="desktopTemplate1.svg"
   xmlns:inkscape="http://www.inkscape.org/namespaces/inkscape"
   xmlns:sodipodi="http://sodipodi.sourceforge.net/DTD/sodipodi-0.dtd"
   xmlns="http://www.w3.org/2000/svg"
   xmlns:svg="http://www.w3.org/2000/svg"
   xmlns:rdf="http://www.w3.org/1999/02/22-rdf-syntax-ns#"
   xmlns:cc="http://creativecommons.org/ns#"
   xmlns:dc="http://purl.org/dc/elements/1.1/">
  <defs
     id="defs6191" />
  <sodipodi:namedview
     id="base"
     pagecolor="#ffffff"
     bordercolor="#666666"
     borderopacity="1.0"
     inkscape:pageopacity="0.0"
     inkscape:pageshadow="2"
     inkscape:zoom="0.49497475"
     inkscape:cx="849.03477"
     inkscape:cy="448.85183"
     inkscape:document-units="px"
     inkscape:current-layer="layer1"
     showgrid="true"
     inkscape:window-width="1920"
     inkscape:window-height="990"
     inkscape:window-x="-11"
     inkscape:window-y="-11"
     inkscape:window-maximized="1"
     inkscape:showpageshadow="2"
     inkscape:pagecheckerboard="0"
     inkscape:deskcolor="#d1d1d1">
    <inkscape:grid
       type="xygrid"
       id="grid6749"
       color="#3f3fff"
       opacity="0"
       spacingx="16"
       spacingy="12"
       originx="0.40702301"
       originy="0.40702301"
       units="px" />
    <inkscape:page
       x="0"
       y="0"
       width="1920"
       height="364.87799"
       id="page2"
       margin="0"
       bleed="0" />
  </sodipodi:namedview>
  <metadata
     id="metadata6194">
    <rdf:RDF>
      <cc:Work
         rdf:about="">
        <dc:format>image/svg+xml</dc:format>
        <dc:type
           rdf:resource="http://purl.org/dc/dcmitype/StillImage" />
        <dc:title />
      </cc:Work>
    </rdf:RDF>
  </metadata>
  <g
     inkscape:label="Layer 1"
     inkscape:groupmode="layer"
     id="layer1"
     transform="translate(0.40702301,0.40702301)">
    <g
       id="g2">
      <rect
         style="fill:#1a1a1a;fill-opacity:1;stroke:#333333;stroke-width:1.99683;stroke-linecap:round;stroke-linejoin:round"
         id="rect1"
         width="1918.0032"
         height="362.88116"
         x="0.59139198"
         y="0.59139198" />
      <g
         id="g1"
         transform="translate(-72.607582)">
        <path
           d="m 608.91315,81.419121 c -1.06821,0 -1.96798,0.153677 -2.88387,0.765374 -0.76388,0.610194 -1.36654,1.378585 -1.8244,2.295377 -6.51413,16.815528 -13.19942,33.476778 -19.71598,50.290198 -0.15065,0.39926 -0.2516,1.02753 -0.26516,1.47048 0.0127,0.34804 0.0301,0.71264 0.26516,1.05917 0.45803,0.6102 1.23848,0.91303 2.00114,0.91303 h 9.62249 c 1.06821,0 1.96783,-0.15368 2.88388,-0.76537 0.91604,-0.6102 1.36653,-1.37407 1.82439,-2.44243 4.73208,-12.21196 9.48088,-24.56586 14.2131,-36.930462 4.73207,12.364602 9.45149,24.718502 14.18371,36.930462 0.30585,1.06822 0.93865,1.83178 1.85379,2.44243 0.91604,0.61018 1.82078,0.76537 2.73666,0.76537 h 9.7697 c 0.53034,0 1.0426,-0.17627 1.47199,-0.47007 0.79852,-0.99288 0.678,-2.41877 0.53034,-2.94263 -6.52016,-16.82397 -13.19325,-33.49365 -19.86302,-50.319724 -0.30584,-0.916042 -0.9085,-1.684583 -1.82439,-2.295225 -0.91604,-0.610194 -1.84474,-0.765374 -2.91325,-0.765374 z m -37.25423,62.678889 c -18.01527,1.00192 -35.90489,2.18147 -53.96852,3.32516 -0.96576,0.006 -1.90168,0.35106 -2.76605,1.03055 -0.86331,0.68251 -1.28818,1.51433 -1.61844,2.53072 l -3.73724,11.47642 c -0.32996,1.01698 -0.44446,1.94177 -0.15066,3.00154 0.34201,0.91604 0.86029,1.723 1.58906,2.44242 13.97971,11.39146 27.7797,22.88897 41.7564,34.28209 0.33146,0.26969 0.90549,0.55896 1.32433,0.7066 0.33449,0.0904 0.68704,0.17177 1.08931,0.0603 0.72319,-0.24406 1.23545,-0.89193 1.47048,-1.61843 l 2.97216,-9.12228 c 0.32846,-1.017 0.4746,-1.94208 0.17629,-3.00154 -0.29681,-1.06069 -0.89043,-1.73627 -1.76549,-2.50134 -10.15209,-8.27421 -20.45423,-16.60249 -30.75095,-24.9243 13.22142,-0.68101 26.4433,-1.362 39.52008,-2.08941 1.1104,0.0452 2.01966,-0.29079 2.88372,-0.97029 0.86331,-0.68251 1.30475,-1.51357 1.58907,-2.38351 l 3.03091,-9.29887 c 0.16272,-0.50472 0.15067,-1.06068 0,-1.55968 -0.69908,-1.0652 -2.10568,-1.35899 -2.64838,-1.3831 z m 86.07303,0.12054 c -0.54239,0.0151 -1.94854,0.34803 -2.64838,1.41173 -0.15067,0.4987 -0.10549,1.02453 0.0603,1.53016 l 3.00153,9.29886 c 0.28477,0.86933 0.72469,1.70146 1.58906,2.38351 0.86331,0.68101 1.77333,1.00945 2.88387,0.97178 13.07664,0.72621 26.29836,1.43885 39.51993,2.11881 -10.29672,8.32181 -20.59887,16.62071 -30.7508,24.89492 -0.87536,0.76537 -1.46897,1.44186 -1.76563,2.50133 -0.29832,1.05917 -0.15217,1.98485 0.17627,3.00153 l 2.97216,9.1223 c 0.23505,0.72621 0.74882,1.37406 1.4705,1.61843 0.40227,0.10549 0.75331,0.0301 1.0893,-0.0603 0.41885,-0.15066 0.99287,-0.43693 1.32434,-0.70662 13.97686,-11.39309 27.77683,-22.89047 41.75654,-34.28207 0.72772,-0.71867 1.24751,-1.52684 1.58906,-2.44242 0.29832,-1.05917 0.18231,-1.98516 -0.15066,-3.00155 l -3.73685,-11.47626 c -0.32996,-1.01698 -0.75483,-1.8482 -1.61843,-2.53071 -0.86482,-0.6795 -1.77137,-1.02301 -2.73667,-1.03055 -18.06364,-1.14355 -36.01202,-2.32309 -54.02743,-3.32516 z m -97.60822,70.41808 c -1.22943,0.33599 -1.95833,1.55079 -2.14817,2.05989 -4.6141,17.44305 -9.04199,34.87599 -13.53631,52.40883 -0.2938,0.92057 -0.23203,1.8812 0.15065,2.91325 0.38269,1.03205 1.01851,1.69634 1.88332,2.32476 l 9.76969,7.09178 c 0.86481,0.62827 1.69603,1.0441 2.79559,1.0893 0.97631,-0.0452 1.91569,-0.32393 2.82495,-0.794 15.154,-9.77527 30.33904,-19.33087 45.49364,-29.10298 0.3631,-0.22449 0.81811,-0.67799 1.0893,-1.03055 0.19134,-0.29077 0.36461,-0.58457 0.38269,-1.0004 -0.006,-0.76237 -0.43994,-1.46446 -1.05917,-1.9127 l -7.76857,-5.64991 c -0.86633,-0.62526 -1.69634,-1.04412 -2.79558,-1.08931 -1.09985,-0.0452 -1.9151,0.28626 -2.91325,0.8829 -11.00636,7.0984 -22.09708,14.34839 -33.19338,21.56959 3.43862,-12.7848 6.86127,-25.59339 10.21099,-38.25465 0.37968,-1.0441 0.32092,-1.99886 -0.0602,-3.03091 -0.38119,-1.03205 -1.02603,-1.69709 -1.7655,-2.23647 l -7.91577,-5.73822 c -0.4324,-0.30886 -0.92358,-0.48212 -1.44186,-0.5002 z m 110.0852,0.12054 c -0.51979,0.015 -1.03959,0.19134 -1.47199,0.5002 l -7.91577,5.73822 c -0.73975,0.53937 -1.38309,1.2038 -1.76564,2.23647 -0.37967,1.03205 -0.40979,2.01619 -0.0301,3.06029 3.34973,12.66126 6.77237,25.44047 10.211,38.22527 -11.0963,-7.22136 -22.18687,-14.47133 -33.19323,-21.56975 -0.99891,-0.59663 -1.81324,-0.92659 -2.91325,-0.8829 -1.09985,0.0452 -1.92865,0.46405 -2.79558,1.08931 l -7.76857,5.64992 c -0.61923,0.44748 -1.08177,1.14957 -1.08931,1.91269 0.0151,0.41583 0.19135,0.70963 0.38269,1.00041 0.26969,0.35256 0.75634,0.80605 1.11794,1.03055 15.1546,9.77225 30.33949,19.32785 45.49362,29.10297 0.90851,0.47007 1.84821,0.75484 2.82497,0.79401 1.09984,-0.0452 1.93092,-0.46104 2.79543,-1.08931 l 9.74032,-7.09178 c 0.86481,-0.62828 1.53059,-1.2927 1.91268,-2.32476 0.37967,-1.03205 0.40981,-1.99328 0.12054,-2.91325 -4.49417,-17.53284 -8.89268,-34.96578 -13.50677,-52.40883 -0.18984,-0.50924 -0.91906,-1.7233 -2.14818,-2.05988 z"
           style="font-size:48px;line-height:1.25;font-family:'Firefly Soft';-inkscape-font-specification:'Firefly Soft';letter-spacing:0px;word-spacing:0px;fill:#ffd700;fill-opacity:1;stroke-width:3.18021"
           id="path1155">
          <title
             id="title1155">PureNSpiration</title>
        </path>
        <text
           xml:space="preserve"
           style="font-style:normal;font-variant:normal;font-weight:normal;font-stretch:normal;font-size:120px;line-height:1.25;font-family:'MADE Tommy Soft';-inkscape-font-specification:'MADE Tommy Soft';text-align:center;text-decoration:none;text-decoration-line:none;text-decoration-color:#000000;letter-spacing:0px;word-spacing:0px;text-anchor:middle;fill:#ffd700;fill-opacity:1;-inkscape-stroke:none;stop-color:#000000"
           x="1164.1331"
           y="240.8399"
           id="text1"><tspan
             sodipodi:role="line"
             id="tspan1"
             x="1164.1331"
             y="240.8399">Purenspiration</tspan></text>
      </g>
    </g>
  </g>
</svg>
